<svg xmlns="http://www.w3.org/2000/svg" viewBox="0 0 64 64">
  <!-- crown -->
  <path d="M20.5 15.5 L23.5 6.5 L28.5 10.5 L32 2.5 L35.5 10.5 L40.5 6.5 L43.5 15.5 Z" fill="#e3b341"/>
  <!-- shield -->
  <path d="M13.5 18.5 H50.5 V36 C50.5 47 41.5 53.5 32 57.5 C22.5 53.5 13.5 47 13.5 36 Z" fill="#0f1218" stroke="#e3b341" stroke-width="2.6" stroke-linejoin="round"/>
  <!-- dumbbell bar -->
  <rect x="16.5" y="35.2" width="31" height="3.2" fill="#e3b341"/>
  <!-- dumbbell plates -->
  <rect x="16" y="31.4" width="2.8" height="10.8" rx="1" fill="#e3b341"/>
  <rect x="19.4" y="28.8" width="3.2" height="16" rx="1" fill="#e3b341"/>
  <rect x="45.2" y="31.4" width="2.8" height="10.8" rx="1" fill="#e3b341"/>
  <rect x="41.4" y="28.8" width="3.2" height="16" rx="1" fill="#e3b341"/>
  <!-- K -->
  <path d="M26.5 24 H30.5 V34 L38 24 H42.5 L35.7 35 L43.5 50 H38.7 L30.5 38.6 V50 H26.5 Z" fill="#e3b341" stroke="#0f1218" stroke-width="1.1" stroke-linejoin="round"/>
</svg>
